<?xml version="1.0" standalone="no"?>
<!DOCTYPE svg PUBLIC "-//W3C//DTD SVG 20010904//EN"
 "http://www.w3.org/TR/2001/REC-SVG-20010904/DTD/svg10.dtd">
<svg version="1.0" xmlns="http://www.w3.org/2000/svg"
 width="260.000000pt" height="260.000000pt" viewBox="0 0 260.000000 260.000000"
 preserveAspectRatio="xMidYMid meet">
<metadata>
Created by potrace 1.11, written by Peter Selinger 2001-2013
</metadata>
<g transform="translate(0.000000,260.000000) scale(0.100000,-0.100000)"
fill="#000000" stroke="none">
<path d="M180 1677 c-3 -3 -17 -7 -30 -9 -45 -6 -98 -45 -122 -90 -22 -41 -23
-52 -23 -283 0 -214 2 -244 19 -275 53 -100 91 -111 379 -110 127 1 232 6 250
12 87 30 128 96 131 211 l1 72 -105 0 -104 0 -2 -31 c-2 -53 -13 -80 -36 -90
-13 -6 -83 -9 -156 -9 -111 1 -135 4 -149 18 -15 15 -18 41 -18 185 -1 194 1
209 27 223 23 12 261 16 295 5 24 -8 35 -35 36 -91 l1 -35 106 0 106 0 -1 63
c-4 117 -32 175 -105 213 -30 16 -65 19 -265 22 -126 2 -232 1 -235 -1z"/>
<path d="M870 1295 l0 -385 317 0 c302 0 319 1 360 21 91 44 129 179 82 289
-12 28 -30 55 -41 61 -17 9 -17 12 10 39 73 73 66 243 -13 312 -50 44 -74 46
-402 47 l-313 1 0 -385z m498 215 c44 0 73 -30 68 -71 -7 -58 -19 -62 -191
-64 -86 0 -159 2 -163 5 -4 3 -7 32 -7 65 0 73 -4 71 148 68 62 -1 127 -2 145
-3z m52 -314 c21 -26 22 -71 2 -96 -18 -23 -24 -24 -180 -24 -89 -1 -162 1
-163 4 -3 18 -4 116 -1 123 2 4 77 7 166 7 131 0 166 -3 176 -14z"/>
<path d="M1739 1678 c-1 -2 -3 -175 -3 -385 l-2 -383 392 0 392 0 -2 83 -1 82
-275 1 c-151 1 -278 2 -282 3 -5 1 -8 30 -8 66 l0 65 235 0 235 0 1 33 c2 32
1 77 0 110 -1 16 -19 17 -236 17 l-235 0 0 70 c0 60 3 70 18 71 9 0 136 1 282
2 l265 2 0 80 0 80 -387 3 c-214 1 -389 1 -389 0z"/>
<path d="M2545 1670 c-3 -5 -1 -10 6 -10 8 0 8 -4 -1 -15 -10 -12 -9 -16 4
-21 21 -8 46 2 46 18 0 9 -3 9 -12 0 -7 -7 -17 -12 -22 -12 -6 0 -5 4 2 8 7 5
10 16 6 25 -7 19 -20 22 -29 7z"/>
<path d="M2580 1670 c0 -5 5 -10 11 -10 5 0 7 5 4 10 -3 6 -8 10 -11 10 -2 0
-4 -4 -4 -10z"/>
<path d="M355 1376 c-39 -17 -53 -43 -50 -89 2 -45 17 -63 61 -77 45 -15 83
-1 107 40 l17 28 172 -1 c156 -1 173 0 176 16 3 16 -12 17 -177 17 -144 0
-181 3 -181 13 0 20 -43 57 -71 62 -13 2 -37 -2 -54 -9z m90 -40 c29 -29 22
-70 -17 -99 -25 -18 -27 -18 -62 -2 -35 17 -41 28 -37 69 5 55 74 74 116 32z"/>
<path d="M357 1319 c-19 -26 -12 -54 18 -67 44 -20 88 41 53 76 -19 19 -55 14
-71 -9z"/>
<path d="M1625 1301 c-9 -15 23 -28 55 -23 19 3 27 9 23 18 -6 16 -68 19 -78
5z"/>
<path d="M2457 1303 c-13 -12 -7 -21 17 -25 29 -6 51 5 42 21 -8 12 -49 15
-59 4z"/>
</g>
</svg>
